HIERARCHY
ROOT root
{
	OFFSET	0	13.1	24.9
	CHANNELS 6  Xposition Yposition Zposition Xrotation Yrotation Zrotation
	JOINT spine_1
	{
		OFFSET	0	9.99999	0
		CHANNELS 3  Xrotation Yrotation Zrotation
		JOINT spine_2
		{
			OFFSET	0	112	-10
			CHANNELS 3  Xrotation Yrotation Zrotation
			JOINT spine_3
			{
				OFFSET	0	206.5	19.3
				CHANNELS 3  Xrotation Yrotation Zrotation
				JOINT spine_4
				{
					OFFSET	0	110.4	14.6
					CHANNELS 3  Xrotation Yrotation Zrotation
					JOINT neck_1
					{
						OFFSET	0	71.8	-50.3
						CHANNELS 3  Xrotation Yrotation Zrotation
						JOINT neck_2
						{
							OFFSET	0	86.2	-25.8
							CHANNELS 3  Xrotation Yrotation Zrotation
							JOINT head_ee
							{
								OFFSET	0	179.8	-8.7
								CHANNELS 3  Xrotation Yrotation Zrotation
								End Site
								{
									OFFSET	1	0	0
								}
							}
						}
					}
					JOINT left_clavicle
					{
						OFFSET	-43.2	22.4	-70.8
						CHANNELS 3  Xrotation Yrotation Zrotation
						JOINT left_shoulder
						{
							OFFSET	-93.9	-5.79999	48.7
							CHANNELS 3  Xrotation Yrotation Zrotation
							JOINT left_elbow
							{
								OFFSET	-291.4	-30.8	15.2
								CHANNELS 3  Xrotation Yrotation Zrotation
								JOINT left_lowarm_twist
								{
									OFFSET	-110.7	-3.89999	13.6
									CHANNELS 3  Xrotation Yrotation Zrotation
									JOINT left_hand
									{
										OFFSET	-110.7	-3.89999	13.6
										CHANNELS 3  Xrotation Yrotation Zrotation
										JOINT left_ee
										{
											OFFSET	-80.8	-5.10001	12.1
											CHANNELS 3  Xrotation Yrotation Zrotation
											End Site
											{
												OFFSET	1	0	0
											}
										}
									}
								}
							}
						}
					}
					JOINT right_clavicle
					{
						OFFSET	43.2	22.4	-70.8
						CHANNELS 3  Xrotation Yrotation Zrotation
						JOINT right_shoulder
						{
							OFFSET	93.9	-5.79999	48.7
							CHANNELS 3  Xrotation Yrotation Zrotation
							JOINT right_elbow
							{
								OFFSET	291.4	-30.8	15.2
								CHANNELS 3  Xrotation Yrotation Zrotation
								JOINT right_lowarm_twist
								{
									OFFSET	110.7	-3.89999	13.6
									CHANNELS 3  Xrotation Yrotation Zrotation
									JOINT right_hand
									{
										OFFSET	110.7	-3.89999	13.6
										CHANNELS 3  Xrotation Yrotation Zrotation
										JOINT right_ee
										{
											OFFSET	80.8	-5.10001	12.1
											CHANNELS 3  Xrotation Yrotation Zrotation
											End Site
											{
												OFFSET	1	0	0
											}
										}
									}
								}
							}
						}
					}
				}
			}
		}
	}
	JOINT left_hip
	{
		OFFSET	-82.8	-127.5	0.300001
		CHANNELS 3  Xrotation Yrotation Zrotation
		JOINT left_knee
		{
			OFFSET	-28.2	-396.7	2.2
			CHANNELS 3  Xrotation Yrotation Zrotation
			JOINT left_ankle
			{
				OFFSET	-11.7	-411.3	35.4
				CHANNELS 3  Xrotation Yrotation Zrotation
				JOINT left_toes
				{
					OFFSET	0	-60	-88.6
					CHANNELS 3  Xrotation Yrotation Zrotation
					JOINT left_foot_ee
					{
						OFFSET	-22.5	-16.5	-42.2
						CHANNELS 3  Xrotation Yrotation Zrotation
						End Site
						{
							OFFSET	1	0	0
						}
					}
				}
			}
		}
	}
	JOINT right_hip
	{
		OFFSET	82.8	-127.5	0.300001
		CHANNELS 3  Xrotation Yrotation Zrotation
		JOINT right_knee
		{
			OFFSET	28.2	-396.7	2.2
			CHANNELS 3  Xrotation Yrotation Zrotation
			JOINT right_ankle
			{
				OFFSET	11.7	-411.3	35.4
				CHANNELS 3  Xrotation Yrotation Zrotation
				JOINT right_toes
				{
					OFFSET	0	-60	-88.6
					CHANNELS 3  Xrotation Yrotation Zrotation
					JOINT right_foot_ee
					{
						OFFSET	22.5	-16.5	-42.2
						CHANNELS 3  Xrotation Yrotation Zrotation
						End Site
						{
							OFFSET	1	0	0
						}
					}
				}
			}
		}
	}
}
MOTION
Frames: 12
Frame Time: 0.02
1777.82 712.325 -1133.22 4.47259 64.1243 -0.209349 -3.29663 -0.337602 -0.917951 -3.2962 -0.278509 -0.937571 -3.29084 -0.0191457 -0.977872 -3.29213 -0.173335 -0.962578 2.45582 9.09893 -0.682387 2.73201 16.5136 -0.0916018 -0.0 0.0 -0.0 7.60908 -18.7671 14.2039 10.8479 -14.9024 45.7305 3.31761 -58.6669 1.86466 -5.98093 -0.248732 0.722622 0.287949 6.52843 4.60545 -0.0 0.0 -0.0 5.67494 -5.99976 -11.0497 -13.335 17.0399 -64.2972 0.435523 12.1749 -0.0464478 21.7385 -0.247054 2.74929 0.129513 -15.7538 -7.24033 0.0 0.0 0.0 -11.7305 -25.8109 4.40449 -18.4194 0.311101 2.79734 42.1874 22.228 -5.28541 -14.9635 0.0 0.0 -0.0 0.0 -0.0 31.8683 3.34696 -11.4409 -4.23056 -0.15092 -0.631575 -16.8951 -13.8969 -2.54642 -33.046 0.0 0.0 0.0 0.0 0.0 
1754.65 711.59 -1148.4 5.30939 65.29 -0.988189 -3.52813 -0.413335 -1.07162 -3.52755 -0.344311 -1.09575 -3.51981 -0.0359367 -1.148 -3.52159 -0.216779 -1.12792 3.47409 9.53492 -0.810595 3.80894 17.2638 -0.329725 -0.0 0.0 -0.0 7.75925 -18.2474 14.5698 9.85115 -14.8561 46.0097 3.16613 -57.4663 1.7361 -7.10133 -0.303661 0.854947 0.508428 6.61631 6.08527 -0.0 0.0 -0.0 5.73491 -6.15425 -11.1606 -12.9107 17.0717 -64.3195 0.522774 14.5189 -0.0665935 21.6943 -0.247615 2.74368 0.219717 -15.4466 -7.68377 0.0 0.0 0.0 -13.0502 -25.7334 3.60309 -20.0337 0.295237 3.04452 42.3082 21.8364 -5.28499 -13.088 0.0 0.0 -0.0 0.0 -0.0 31.0433 2.46315 -11.1307 -6.51471 -0.212889 -0.976615 -20.0986 -14.313 -3.03614 -33.2134 0.0 0.0 0.0 0.0 0.0 
1725.04 711.253 -1161.31 8.02249 66.126 -3.91254 -3.61893 -0.250113 -1.2008 -3.61815 -0.173202 -1.21427 -3.6132 0.162828 -1.21571 -3.61527 -0.0311992 -1.22617 2.87381 9.83788 -0.293692 3.18697 17.4288 0.339886 -0.0 0.0 -0.0 8.00307 -18.028 15.1188 7.89635 -16.1861 47.4568 2.91136 -55.2523 1.52395 -8.6062 -0.381501 1.03096 0.783338 5.97913 7.64221 -0.0 0.0 -0.0 5.90787 -5.54301 -11.482 -12.0616 17.0407 -64.0458 0.500099 13.9142 -0.0610246 21.2749 -0.252732 2.69035 0.00617657 -16.4797 -6.75785 0.0 0.0 0.0 -13.4167 -24.3717 3.7548 -23.1377 0.245199 3.51812 41.6353 19.737 -5.17055 -10.8793 0.0 0.0 -0.0 0.0 -0.0 28.7696 2.51106 -9.71248 -7.56031 -0.236654 -1.13531 -21.1783 -12.69 -3.19263 -33.6051 0.0 0.0 0.0 0.0 0.0 
1691.27 712.204 -1171.11 11.2334 67.1597 -8.10066 -3.83013 -0.239328 -1.04973 -3.82953 -0.17205 -1.06283 -3.82531 0.126791 -1.06917 -3.8269 -0.0436458 -1.07578 3.46281 9.78315 0.396983 3.75292 16.6657 1.04919 -0.0 0.0 -0.0 8.53431 -17.5095 16.3192 6.26638 -14.7984 49.5143 2.61439 -52.3178 1.28428 -13.3845 -0.65894 1.57552 -0.0414506 8.15913 3.12428 -0.0 0.0 -0.0 6.0411 -5.06337 -11.7318 -11.6485 16.8255 -63.2927 0.4741 13.2169 -0.0549264 24.1205 -0.210362 3.05133 0.76216 -15.9665 -11.2726 0.0 0.0 0.0 -12.6294 -19.0401 5.59283 -25.5899 0.187567 3.89 40.2845 21.3652 -5.08853 -9.88599 0.0 0.0 -0.0 0.0 -0.0 26.934 2.78349 -7.72877 -12.6801 -0.311029 -1.91714 -13.9146 -10.6375 -2.08489 -33.3715 0.0 0.0 0.0 0.0 0.0 
1658.95 716.276 -1180.55 16.4096 67.1945 -13.8786 -4.21744 -0.144996 -0.908116 -4.21699 -0.0869189 -0.915501 -4.21484 0.174285 -0.902953 -4.21598 0.0294996 -0.919144 3.36171 9.22097 1.6701 3.56931 14.6102 2.46161 -0.0 0.0 -0.0 8.59588 -17.3749 16.4631 3.85494 -15.2045 51.041 2.32828 -49.0667 1.06281 -14.3908 -0.723114 1.68717 0.425865 3.75144 4.38693 -0.0 0.0 -0.0 6.35804 -4.47969 -12.3311 -10.9558 18.2159 -62.4852 0.442515 12.3644 -0.0479335 22.294 -0.239621 2.81985 0.189883 -18.4546 -8.63969 0.0 0.0 0.0 -11.9397 -18.9521 7.0102 -30.9686 0.0057476 4.69515 40.9079 20.3272 -5.11953 -7.29415 0.0 0.0 -0.0 0.0 -0.0 22.4576 2.54907 -6.12687 -15.78 -0.32202 -2.39257 -3.84795 -5.92125 -0.568448 -30.0612 0.0 0.0 0.0 0.0 0.0 
1637.41 721.616 -1186.98 18.5913 66.4009 -17.0077 -4.38192 -0.035567 -0.778545 -4.38158 0.0140444 -0.779231 -4.38128 0.234974 -0.743093 -4.38203 0.114671 -0.770875 1.02436 8.35252 1.36295 1.16891 13.6553 2.24983 -0.0 0.0 -0.0 9.1541 -16.7328 17.732 1.78644 -14.0919 51.372 2.00211 -44.7587 0.824436 -14.0743 -0.702716 1.65217 0.49338 3.36509 4.67708 -0.0 0.0 -0.0 6.80756 -4.30972 -13.1856 -9.78159 20.8706 -60.1412 0.542298 15.037 -0.0715736 24.3172 -0.206772 3.0762 0.678565 -17.9292 -11.4514 0.0 0.0 0.0 -11.4645 -17.3339 8.35393 -34.3455 -0.146755 5.19079 39.0071 20.2324 -4.94102 -5.83093 0.0 0.0 -0.0 0.0 -0.0 19.6588 3.02229 -4.54032 -14.5218 -0.32066 -2.19952 -7.87167 -5.21209 -1.17203 -36.9165 0.0 0.0 0.0 0.0 0.0 
1605.41 728.472 -1195.45 20.5932 64.9475 -19.5589 -4.93949 0.135436 -0.728506 -4.93922 0.181517 -0.718412 -4.94122 0.384465 -0.633447 -4.94167 0.279602 -0.686213 1.50447 9.26415 1.47844 1.69214 15.1112 2.40993 -0.0 0.0 -0.0 9.30023 -16.3702 18.0752 -0.0827454 -13.7008 52.6039 1.67794 -39.7302 0.606289 -15.0418 -0.765677 1.75881 -0.0986528 1.69324 0.0563908 -0.0 0.0 -0.0 7.31921 -3.80231 -14.1738 -8.35923 21.0709 -58.8415 0.556605 15.4151 -0.0753312 24.6274 -0.200935 3.1154 0.876719 -14.1495 -11.3429 0.0 0.0 0.0 -9.0302 -15.8326 9.0558 -39.2078 -0.41714 5.88708 38.7672 21.9423 -4.96006 -3.02302 0.0 0.0 -0.0 0.0 -0.0 15.7848 2.961 -3.69835 -17.7757 -0.315483 -2.69867 7.13327 2.13518 1.03998 -36.8019 0.0 0.0 0.0 0.0 0.0 
1581.98 725.676 -1203.3 23.4267 63.7104 -22.0464 -5.20657 0.060777 -0.64816 -5.20634 0.101897 -0.642979 -5.20719 0.288911 -0.583385 -5.20761 0.193152 -0.62169 4.43507 8.94152 1.01193 4.66451 14.541 1.61737 -0.0 0.0 -0.0 9.62048 -16.5186 18.7765 -1.49916 -13.4046 53.1088 1.35198 -33.8097 0.410905 -15.0353 -0.765246 1.75809 -0.235542 0.411974 -1.39771 -0.0 0.0 -0.0 7.31959 -2.0368 -14.2069 -7.07665 24.4103 -58.1272 0.566044 15.6638 -0.0778599 25.1342 -0.190944 3.17936 1.0212 -15.906 -12.8865 0.0 0.0 0.0 -6.32776 -12.8004 8.8097 -47.591 -1.0189 7.02629 36.4764 24.2666 -4.7953 -0.643649 0.0 0.0 -0.0 0.0 -0.0 12.6019 5.16894 -3.89752 -19.448 -0.301798 -2.95488 12.4654 5.27072 1.80224 -37.1077 0.0 0.0 0.0 0.0 0.0 
1560.33 727.884 -1212.65 25.3662 64.1432 -24.0389 -5.32336 0.191526 -0.560353 -5.32322 0.226794 -0.54703 -5.32531 0.38047 -0.453786 -5.32547 0.304029 -0.508178 4.204 9.65965 1.28316 4.46173 15.5819 1.9776 -0.0 0.0 -0.0 9.63553 -15.6882 18.8526 -3.58649 -13.3126 53.9862 1.16897 -30.0729 0.314032 -15.3023 -0.78294 1.78734 -0.543195 -0.369136 -3.78905 -0.0 0.0 -0.0 7.53378 -0.66272 -14.6471 -5.87135 26.0261 -57.2944 0.600972 16.5786 -0.0875585 25.7122 -0.178858 3.25221 1.31101 -13.9531 -14.0614 0.0 0.0 0.0 -4.6744 -11.9991 8.61709 -51.6273 -1.36682 7.54116 34.4915 26.0098 -4.6369 0.36432 -0.0 -0.0 -0.0 0.0 -0.0 10.3564 6.26903 -3.49316 -21.0636 -0.28148 -3.20195 17.7923 6.39074 2.52501 -39.532 0.0 0.0 0.0 0.0 0.0 
1542.97 734.748 -1220.02 25.0354 63.4284 -23.7662 -5.77252 0.285283 -0.364189 -5.77249 0.307879 -0.345298 -5.77447 0.399138 -0.233899 -5.77437 0.357189 -0.294001 2.7779 9.3171 1.55066 2.98596 14.9644 2.38134 -0.0 0.0 -0.0 9.79127 -14.3286 19.2582 -4.99155 -12.4035 53.7874 0.969983 -25.6639 0.220948 -15.3924 -0.788937 1.79719 -0.614438 -0.972263 -4.52777 -0.0 0.0 -0.0 7.89629 -0.143822 -15.3767 -4.82872 27.2768 -55.2151 0.740093 20.1339 -0.131392 25.4051 -0.18537 3.21352 1.43322 -11.4239 -13.968 0.0 0.0 0.0 0.7609 -10.9928 7.77978 -57.9471 -1.98244 8.2954 35.2931 26.9158 -4.7513 0.821226 -0.0 -0.0 -0.0 0.0 -0.0 8.91428 7.29807 -3.39166 -21.9825 -0.266818 -3.34219 21.5994 10.9597 3.07592 -40.1124 0.0 0.0 0.0 0.0 0.0 
1537.6 736.811 -1225.16 24.906 63.4742 -23.8009 -5.87743 0.361668 -0.165448 -5.87749 0.371462 -0.142099 -5.87861 0.397196 -0.0202752 -5.8784 0.389009 -0.0827515 1.42238 9.61216 0.765225 1.64618 16.333 1.66233 -0.0 0.0 -0.0 9.43047 -13.8848 18.4799 -6.3664 -13.2009 54.9062 0.900488 -24.0402 0.191738 -15.0658 -0.767266 1.76145 -0.638261 -1.83392 -5.06151 -0.0 0.0 -0.0 8.40734 1.06215 -16.428 -2.44807 28.9105 -53.6786 0.876575 23.4717 -0.182105 24.8741 -0.196143 3.14654 1.28019 -10.5857 -12.6611 0.0 0.0 0.0 5.88951 -10.7623 6.85283 -61.469 -2.36069 8.68527 32.2643 26.4196 -4.40313 0.366009 -0.0 -0.0 -0.0 0.0 -0.0 7.61376 6.92569 -3.86644 -19.7548 -0.298476 -3.00185 21.6526 11.1052 3.08516 -40.1976 0.0 0.0 0.0 0.0 0.0 
1518.7 738.538 -1234.76 25.6181 65.4485 -24.7095 -5.88217 0.36396 -0.172391 -5.88223 0.374192 -0.148881 -5.8834 0.401892 -0.0258477 -5.88318 0.392766 -0.0889955 1.18643 9.30044 1.57849 1.368 15.1361 2.55176 -0.0 0.0 -0.0 9.61099 -12.7716 18.9172 -7.78021 -11.3741 54.4102 0.841743 -22.6347 0.168465 -15.5646 -0.800445 1.81598 -0.693263 -1.79973 -5.41706 -0.0 0.0 -0.0 8.43981 1.23728 -16.4972 -1.39398 29.3384 -52.7078 0.889445 23.7782 -0.187263 25.3258 -0.18702 3.20351 1.43193 -10.553 -13.6476 0.0 0.0 0.0 7.31888 -10.4017 6.725 -62.4224 -2.46716 8.78679 31.9507 27.0641 -4.3863 0.273218 -0.0 -0.0 -0.0 0.0 -0.0 6.87135 4.27527 -3.37814 -21.1137 -0.280739 -3.20959 24.0586 9.18958 3.34899 -40.1058 0.0 0.0 0.0 0.0 0.0 
